<svg width="293" height="251" xmlns="http://www.w3.org/2000/svg" xmlns:xlink="http://www.w3.org/1999/xlink" xml:space="preserve" overflow="hidden"><g transform="translate(-2054 -1112)"><path d="M2282.79 1192.58 2282.79 1135.05 2255.36 1135.05 2255.36 1166.55 2200.5 1114.5 2200.5 1114.5 2056.5 1251.49 2071.93 1264.5 2200.5 1142.58 2200.5 1142.58 2329.07 1264.5 2344.5 1251.49Z" stroke="#FFFFFF" stroke-width="3.4375" stroke-miterlimit="8" fill="#FFFFFF" fill-rule="evenodd"/><path d="M2097.5 1259.44 2097.5 1361.5 2179.9 1361.5 2179.9 1275.59 2221.1 1275.59 2221.1 1361.5 2303.5 1361.5 2303.5 1259.44 2200.5 1161.5 2097.5 1259.44ZM2159.3 1316.83 2118.1 1316.83 2118.1 1275.59 2159.3 1275.59 2159.3 1316.83ZM2241.7 1275.59 2282.9 1275.59 2282.9 1316.83 2241.7 1316.83 2241.7 1275.59Z" stroke="#FFFFFF" stroke-width="3.4375" stroke-miterlimit="8" fill="#FFFFFF" fill-rule="evenodd"/></g></svg>